<svg xmlns="http://www.w3.org/2000/svg" viewBox="0 0 56 56" fill="none">
  <rect width="56" height="56" fill="#1769FF"/>
  <path d="M22 21h-8v14h8c2.5 0 4.5-1.5 4.5-3.5 0-1.5-1-2.5-2-3 1-.5 1.5-1.5 1.5-2.5 0-2.5-2-5-4-5zm-.5 5.5h-4v-3h4c1 0 1.5.5 1.5 1.5s-.5 1.5-1.5 1.5zm.5 6h-4.5v-3.5h4.5c1 0 1.5.75 1.5 1.75s-.5 1.75-1.5 1.75zM36 24c-3.5 0-6 2.5-6 6s2.5 6 6 6c2.5 0 4.5-1.5 5.5-3.5h-3c-.5.75-1.5 1-2.5 1-1.5 0-2.5-1-3-2.5h9c0-3.5-2.5-7-6-7zm-3 5c.5-1.5 1.5-2.5 3-2.5s2.5 1 3 2.5h-6zM32 20h8v2h-8v-2z" fill="#fff"/>
</svg>