<svg xmlns="http://www.w3.org/2000/svg" viewBox="0 0 56 56" fill="none">
  <rect width="56" height="56" fill="#24292f"/>
  <path fill-rule="evenodd" clip-rule="evenodd" d="M28 14c-7.73 0-14 6.27-14 14 0 6.19 4.01 11.44 9.58 13.29.7.13.96-.3.96-.67v-2.35c-3.9.85-4.72-1.88-4.72-1.88-.64-1.62-1.56-2.05-1.56-2.05-1.27-.87.1-.85.1-.85 1.4.1 2.14 1.44 2.14 1.44 1.25 2.14 3.28 1.52 4.08 1.16.13-.9.49-1.52.89-1.87-3.11-.35-6.38-1.56-6.38-6.93 0-1.53.55-2.78 1.44-3.76-.14-.36-.62-1.78.14-3.71 0 0 1.18-.38 3.85 1.44 1.12-.31 2.32-.47 3.51-.47 1.19 0 2.39.16 3.51.47 2.67-1.82 3.85-1.44 3.85-1.44.76 1.93.28 3.35.14 3.71.9.98 1.44 2.23 1.44 3.76 0 5.38-3.28 6.57-6.4 6.92.5.43.96 1.29.96 2.6v3.86c0 .38.25.81.97.67C37.99 39.44 42 34.19 42 28c0-7.73-6.27-14-14-14z" fill="#fff"/>
</svg>